Coordinates
version=1
nRows=17
nColumns=24
inDegrees=yes

Units are S.I. units (second, meters, Newtons, ...)
Angles are in degrees.

endheader
time	pelvis_tilt	pelvis_list	pelvis_rotation	pelvis_tx	pelvis_ty	pelvis_tz	hip_flexion_r	hip_adduction_r	hip_rotation_r	knee_angle_r	ankle_angle_r	subtalar_angle_r	mtp_angle_r	hip_flexion_l	hip_adduction_l	hip_rotation_l	knee_angle_l	ankle_angle_l	subtalar_angle_l	mtp_angle_l	lumbar_extension	lumbar_bending	lumbar_rotation
      0.58300000	      0.10244359	      0.92420230	      7.67437477	     -0.90768361	      1.01170381	      0.30860026	     20.42746200	     -1.10224556	    -12.12180678	      7.18448442	      1.32091060	     -0.16927669	      4.41341860	    -16.54845378	      4.06371920	     13.04827582	     -5.14415540	     14.01285812	     -5.98869516	     -2.88744489	     -4.84926831	     -3.59360552	     -6.25938686
      0.58716667	      0.23825138	      0.76126227	      7.70407775	     -0.90212963	      1.01121057	      0.30868176	     20.44138873	     -0.86956129	    -12.10928698	      6.44327778	      1.44519392	     -0.20196627	      4.41754583	    -16.78794063	      3.85884357	     12.91856038	     -5.59833210	     14.24454873	     -5.75441797	     -2.92206226	     -4.96683141	     -3.36203567	     -6.13570589
      0.59133333	      0.29957501	      0.60235437	      7.73790760	     -0.89652591	      1.01063292	      0.30876621	     20.52396929	     -0.65278920	    -11.99357548	      5.68628428	      1.45151099	     -0.45268305	      4.42435263	    -16.95721356	      3.67502659	     12.93899122	     -6.04184357	     14.35539750	     -5.81811142	     -2.92623046	     -4.99222673	     -3.15428869	     -6.14369648
      0.59550000	      0.34456115	      0.46409314	      7.75276661	     -0.89089438	      1.01004606	      0.30888735	     20.58904081	     -0.44758043	    -11.64126239	      4.97440977	      1.27549466	     -1.11427942	      4.47253502	    -17.07582871	      3.52062548	     12.82142752	     -6.56231645	     14.54897465	     -5.63306104	     -2.94800370	     -4.96436629	     -2.96003667	     -6.14860464
      0.59966667	      0.44038937	      0.29930126	      7.76935077	     -0.88520318	      1.00957241	      0.30898373	     20.62457630	     -0.21530240	    -11.46735529	      4.18452012	      1.20429701	     -1.45522868	      4.49912442	    -17.26451262	      3.33666437	     12.79367349	     -7.04634244	     14.63933747	     -5.68171001	     -2.95140823	     -4.98594584	     -2.71007954	     -6.13935526
      0.60383333	      0.49843848	      0.12928234	      7.75798071	     -0.87942645	      1.00905603	      0.30917260	     20.66171029	      0.04059149	    -11.05443732	      3.46983176	      0.88687364	     -2.21822305	      4.57494365	    -17.40675087	      3.15320529	     12.68744914	     -7.54564922	     14.75133166	     -5.54571082	     -2.94938813	     -4.98953444	     -2.49397882	     -6.11254839
      0.60800000	      0.57647487	     -0.02218770	      7.76444639	     -0.87366307	      1.00861605	      0.30934228	     20.67698965	      0.27477716	    -10.70168751	      2.74583084	      0.52548389	     -2.94286334	      4.68292012	    -17.53979229	      2.98654987	     12.55676452	     -8.11456380	     14.81949787	     -5.45269031	     -2.93392768	     -4.99955830	     -2.30265938	     -6.08269868
      0.61216667	      0.63412768	     -0.19219099	      7.74840225	     -0.86780696	      1.00817444	      0.30955062	     20.71167606	      0.53462053	    -10.30949293	      2.01851358	      0.13993304	     -3.67061495	      4.79716396	    -17.65848626	      2.80988806	     12.44594171	     -8.66830230	     14.86334384	     -5.38221186	     -2.90451005	     -4.97177976	     -2.06903951	     -6.05837741
      0.61633333	      0.71873816	     -0.35559174	      7.73823308	     -0.86192974	      1.00780598	      0.30978610	     20.70031005	      0.79711020	     -9.90595294	      1.33046795	     -0.34512611	     -4.48794723	      4.93967887	    -17.79087766	      2.63250524	     12.29426911	     -9.25488048	     14.88147924	     -5.29040829	     -2.85216147	     -4.98312844	     -1.86449245	     -6.02373656
      0.62050000	      0.77289249	     -0.52349362	      7.71496416	     -0.85599096	      1.00743353	      0.31004643	     20.71614613	      1.06677202	     -9.47012480	      0.65217063	     -0.88543612	     -5.32725537	      5.09478248	    -17.87956238	      2.46041832	     12.14427546	     -9.86615133	     14.86575206	     -5.20415479	     -2.77774670	     -4.94366677	     -1.65071355	     -5.98677951
      0.62466667	      0.83102618	     -0.69432316	      7.69492181	     -0.85001715	      1.00710763	      0.31033195	     20.71726006	      1.34345511	     -9.03299508	     -0.00139776	     -1.48620150	     -6.19208548	      5.26042750	    -17.96354610	      2.28045010	     11.97218875	    -10.49065995	     14.82405203	     -5.09739308	     -2.67883715	     -4.90305360	     -1.43255685	     -5.95300855
      0.62883333	      0.87760005	     -0.87248821	      7.66699419	     -0.84398706	      1.00679867	      0.31065475	     20.72171657	      1.63300229	     -8.58524998	     -0.63310264	     -2.14128686	     -7.06878486	      5.43568686	    -18.02582436	      2.09456444	     11.77791273	    -11.13952868	     14.75601329	     -4.97246465	     -2.55502693	     -4.84401774	     -1.21426027	     -5.91237890
      0.63300000	      0.93968634	     -1.05023193	      7.63686336	     -0.83791886	      1.00655583	      0.31099198	     20.70047249	      1.92637582	     -8.14800692	     -1.24501474	     -2.83292952	     -7.93602885	      5.61609960	    -18.09415148	      1.90768508	     11.58351438	    -11.80542574	     14.64181190	     -4.85538934	     -2.40494481	     -4.79154975	     -0.99344564	     -5.86907622
      0.63716667	      0.99997701	     -1.23234794	      7.60511733	     -0.83181935	      1.00635390	      0.31135468	     20.67408100	      2.22625229	     -7.71635465	     -1.84093078	     -3.54808340	     -8.79072605	      5.81401586	    -18.14371599	      1.71311908	     11.34556812	    -12.49741079	     14.49398550	     -4.70810602	     -2.21234122	     -4.74024401	     -0.76901009	     -5.82168080
      0.64133333	      1.03256813	     -1.41960966	      7.57960209	     -0.82567746	      1.00615741	      0.31172691	     20.67526594	      2.52464113	     -7.32223327	     -2.43514194	     -4.26434369	     -9.59870991	      6.00809304	    -18.15078014	      1.51312781	     11.10848946	    -13.21970284	     14.31525744	     -4.55276855	     -1.99209619	     -4.64303728	     -0.54838373	     -5.78657362
      0.64550000	      1.07152794	     -1.61157342	      7.55490854	     -0.81949323	      1.00601869	      0.31211613	     20.66128800	      2.82814645	     -6.94625070	     -3.01681916	     -4.97412720	    -10.36881016	      6.20080492	    -18.14479519	      1.30364657	     10.84400726	    -13.97129956	     14.09718135	     -4.37366887	     -1.73530478	     -4.55009268	     -0.32057766	     -5.74716571
      0.64966667	      1.12356119	     -1.80796366	      7.52594871	     -0.81328982	      1.00593643	      0.31252697	     20.63121669	      3.13808186	     -6.59146580	     -3.59681429	     -5.66011252	    -11.09537597	      6.39545254	    -18.14366979	      1.08457096	     10.55320612	    -14.73318901	     13.83776898	     -4.18003498	     -1.43214497	     -4.47144224	     -0.08577757	     -5.69976631
